<svg xml:space="preserve" stroke-linejoin="round" stroke-width="28.222" fill-rule="evenodd" preserveAspectRatio="xMidYMid" viewBox="0 0 16828.001 5345.001" height="202.016" width="636.019" version="1.2" xmlns="http://www.w3.org/2000/svg"><path style="color:#000;fill:#e0e0e0;-inkscape-stroke:none" d="M106 0C91 0 77.448 3.459 65.557 7.783l-.475.172-.46.211c-12.46 5.663-23.5 13.442-33.259 22.117l-.285.254-.271.27C20.445 41.169 13.559 52.757 8.166 64.62l-.086.188L8 65c-5.71 13.704-8 27.556-8 41v5134c0 13.444 2.233 27.325 8.166 40.379 5.252 11.554 11.885 24.217 23.092 34.226 9.798 9.705 21.025 17.656 33.836 22.409C78.014 5342.79 91.837 5345 106 5345h16616c14.21 0 27.307-2.367 40.654-7.875 12.919-4.74 24.224-12.75 34.088-22.52 11.207-10.008 17.84-22.672 23.092-34.226 5.933-13.054 8.166-26.935 8.166-40.379V106c0-13.444-2.29-27.296-8-41l-.08-.191-.09-.188c-5.393-11.864-12.279-23.452-22.641-33.814l-.271-.27-.285-.254c-9.76-8.675-20.799-16.454-33.258-22.117l-.621-.283-.647-.215C16749.7 3.531 16737 0 16722 0Zm0 26h16616c10.749 0 19.904 2.382 31.129 6.094 9.217 4.264 17.889 10.27 25.887 17.332 7.454 7.518 12.503 15.795 17.037 25.724 4.244 10.245 5.947 20.346 5.947 30.85v5134c0 10.556-1.767 20.675-5.834 29.621-4.73 10.406-10.081 19.687-16.803 25.662l-.285.254-.271.27c-7.979 7.978-16.45 13.776-25.25 16.976l-.282.102-.275.115c-10.533 4.389-19.333 6-31 6H106c-11.667 0-21.675-1.767-30.621-5.834l-.461-.21-.475-.173c-8.8-3.2-17.271-8.998-25.25-16.976l-.271-.27-.285-.254c-6.722-5.975-12.073-15.256-16.803-25.662C27.767 5260.675 26 5250.556 26 5240V106c0-10.504 1.703-20.605 5.947-30.85 4.534-9.929 9.583-18.206 17.037-25.724 8.026-7.087 16.73-13.114 25.983-17.381C84.914 28.47 95.188 26 106 26Z"/><path style="color:#000;fill:#fff;fill-opacity:.995627;stroke-linecap:round;stroke-linejoin:round;-inkscape-stroke:none" d="M793 921.5a30.5 30.5 0 0 0-30.5 30.5v565c0 12.568 2.772 25.017 7.594 36.713 5.36 16.027 14.246 25.575 19.506 32.588a30.503 30.503 0 0 0 4.55 4.857c7 6 17.133 15.42 33.206 20.778l-2.743-1.065c14.172 6.299 28.128 7.629 39.387 7.629h565a30.5 30.5 0 0 0 30.5-30.5 30.5 30.5 0 0 0-30.5-30.5H864c-6.74 0-10.785-.67-14.613-2.371a30.503 30.503 0 0 0-2.742-1.064c-1.647-.55-5.156-2.993-10.38-7.296-4.909-6.63-7.778-10.76-8.33-12.414a30.503 30.503 0 0 0-1.064-2.742c-2.467-5.552-3.371-10.131-3.371-14.613V952a30.5 30.5 0 0 0-30.5-30.5Z"/><path style="color:#000;fill:#fff;fill-opacity:.995627;stroke-linecap:round;stroke-linejoin:round;-inkscape-stroke:none" d="M1253 992.5c-7.622 0-15.778 1.765-22.746 4.574-14.517 4.036-21.055 12.594-23.82 15.36a30.503 30.503 0 0 0-2.834 3.265c.416-.554-7.273 4.859-12.918 18.973a30.503 30.503 0 0 0-1.272 3.932c-1.29 5.16-2.91 11.313-2.91 20.396v353c0 9.067 1.745 15.75 2.592 19.982a30.503 30.503 0 0 0 2.629 7.659c5.637 11.274 11.713 15.925 14.713 18.925 5.396 5.397 12.68 10.93 22.238 14.752a30.503 30.503 0 0 0 3.931 1.272c4 1 11.33 2.91 20.397 2.91h71c9.083 0 15.236-1.62 20.396-2.91a30.503 30.503 0 0 0 6.245-2.31c7.637-3.82 12.66-7.88 16.66-10.88a30.503 30.503 0 0 0 3.265-2.834c7.793-7.792 10.713-14.925 12.713-18.925a30.503 30.503 0 0 0 1.04-2.313c2.78-6.953 5.181-16.261 5.181-25.328v-353c0-8.96-1.483-16.976-6.06-26.268-2.975-6.785-6.858-12.79-10.04-17.033a30.503 30.503 0 0 0-6.1-6.1c-1.314-.985-4.721-7.794-20.027-12.331-8.037-3.477-15.302-4.768-23.273-4.768Zm70.36 60.78a30.503 30.503 0 0 0 .595.22h.045c-.023 0-.01.01-.029.01a30.503 30.503 0 0 0 2.092.773c.096.133.326.434.4.543-1.49-.399-2.032-.409.637 1.2.161.354.292.58.582 1.306a30.503 30.503 0 0 0 .799 1.776c0-.05.019-.024.019-.104v.15a30.503 30.503 0 0 0 .22.49c-.21-.419-.174-.25-.22-.265V1412c0 .586-.33 1.226-.514 1.678-.29.52-.546 1.005-.742 1.332-.624.43-1.294.92-1.707 1.191-.322.056-1.834.299-1.537.299h-71c-.443 0-1.95-.39-2.658-.518-.276-.2-.51-.283-.776-.548-.813-.814-1.228-1.384-1.834-2.11-.017-.193-.232-1.17-.232-1.324v-353c0 .078.074-.435.078-.406.469-.558 1.687-2.176 2.74-3.576.902-.64 1.456-1.022.402-.526.092-.123.125-.157.221-.285a30.503 30.503 0 0 0 2.059-.707h70.625c-.014-.046.154-.011-.266-.22zm.335.279c-.037.058-.062.024 0 0zm-73.03.742-.321.37c-.486.2-1.292.399-2.125.636.015-.09.017-.086.033-.178a30.503 30.503 0 0 0 2.412-.828zm76.216.281a30.503 30.503 0 0 0 2.723 1.008c-1.993-.498-1.335-.299-2.27-.555zm-78.879.633-.053.164c-.658.18-1.084.353-1.967.53a30.503 30.503 0 0 0 2.02-.694zm80.336 3.965c.02.089.064.15.103.125-.01.02-.113-.168-.103-.125zM971 1098.5c-9.067 0-18.375 2.4-25.328 5.182l3.932-1.272c-13.283 3.32-19.774 9.627-25.17 15.024-2.885 2.885-10.005 9.088-15.108 20.943-5.105 10.867-4.826 20.778-4.826 25.623v248c0 5 .098 15.12 4.182 25.328a30.503 30.503 0 0 0 1.039 2.313c5.637 11.274 11.713 15.925 14.713 18.925 5.396 5.397 11.288 9.895 18.925 13.713a30.503 30.503 0 0 0 7.659 2.63c4.233.846 10.915 2.591 19.982 2.591h70c9.067 0 16.236-1.62 21.396-2.91a30.503 30.503 0 0 0 6.245-2.31c6.327-3.164 11.324-6.938 15.966-11.159 10.254-7.835 14.695-17.526 16.672-21.48a30.503 30.503 0 0 0 1.04-2.313c2.78-6.953 5.181-16.261 5.181-25.328v-248c0-9.067-2.402-19.003-6.22-26.64l1.038 2.312c-2.52-6.302-7.51-17.192-18.017-25.072l3.265 2.834c-4.784-4.785-10.711-10.168-21.187-13.668-8.647-3.88-17.041-5.266-25.379-5.266zm70.36 60.78a30.503 30.503 0 0 0 6.244 2.31c-1.645-.411-1.802-.55-2.362-.768-.017-.023-.02.01-.035-.012-1.204-.472-1.186-.657-.773-.244a30.503 30.503 0 0 0 .957.83c.026.13-.152-.175.29.932a30.503 30.503 0 0 0 .82 1.822V1412c0 .675-.247 1.106-.593 1.934-.032.06-.208.394-.207.4a30.503 30.503 0 0 0-1.267 1.1c-.17.17-.529.38-.863.642-.827.112-2.207.424-2.57.424h-70c-.306 0-2.091-.382-2.62-.459-.31-.245-.654-.447-.814-.607-.925-.925-1.437-1.612-2.084-2.399 0-.47.018-.248.018-1.035v-248c0-.958-.011-.604 0-1.066.44-.563.904-1.208 2.064-2.368.055-.055.049.001.113-.039a30.503 30.503 0 0 0 .649-.209c3.047-1.218 1.738-.818 2.672-.818h70c.933 0 1.815.507.359-.22zM9304 886.5a30.5 30.5 0 0 0-30.5 30.5v141a30.5 30.5 0 0 0 30.5 30.5 30.5 30.5 0 0 0 30.5-30.5V917a30.5 30.5 0 0 0-30.5-30.5ZM9586 886.5a30.5 30.5 0 0 0-30.5 30.5v141a30.5 30.5 0 0 0 30.5 30.5 30.5 30.5 0 0 0 30.5-30.5V917a30.5 30.5 0 0 0-30.5-30.5Z"/><path style="color:#000;fill:#fff;fill-opacity:.995627;stroke-linecap:round;stroke-linejoin:round;-inkscape-stroke:none" d="M9198 957.5c-13.519 0-25.716 2.921-36.645 6.564a30.503 30.503 0 0 0-3.996 1.657c-9.818 4.909-19.847 11.097-29.209 19.12a30.503 30.503 0 0 0-3.308 3.31c-8.024 9.36-14.212 19.39-19.121 29.208a30.503 30.503 0 0 0-1.657 3.996c-3.643 10.93-6.564 23.126-6.564 36.645v494c0 14.697 2.866 27.84 6.941 38.709a30.503 30.503 0 0 0 .688 1.678c5.447 12.256 12.623 22.191 19.713 30.463a30.503 30.503 0 0 0 1.592 1.716c9.873 9.874 21.216 17.083 33.115 21.666 12.188 5.28 25.265 8.268 38.451 8.268h283a30.5 30.5 0 0 0 30.5-30.5 30.5 30.5 0 0 0-30.5-30.5h-283c-4.481 0-9.061-.904-14.613-3.371a30.503 30.503 0 0 0-1.678-.688c-3.609-1.353-7.703-3.885-11.447-7.445-4.034-4.812-6.698-8.711-8.959-13.596-1.729-4.818-2.803-9.512-2.803-16.4v-494c0-4.003 1.016-9.22 2.879-15.293 2.496-4.718 5.347-9.144 8.373-12.955 3.812-3.027 8.237-5.877 12.955-8.373 6.073-1.863 11.291-2.879 15.293-2.879h495c5.611 0 10.575 1.077 15.439 2.814 6.041 2.796 10.707 5.964 12.995 8.252 3.919 3.92 6.572 8.316 8.007 12.143a30.503 30.503 0 0 0 .688 1.678c2.467 5.552 3.371 10.131 3.371 14.613v283a30.5 30.5 0 0 0 30.5 30.5 30.5 30.5 0 0 0 30.5-30.5v-283c0-13.186-2.989-26.263-8.268-38.451-4.583-11.899-11.792-23.242-21.666-33.115-9.594-9.595-20.689-16.198-32.179-21.305a30.503 30.503 0 0 0-1.678-.688c-10.869-4.075-23.642-6.941-37.709-6.941Z"/><path style="color:#000;fill:#fff;fill-opacity:.995627;stroke-linecap:round;stroke-linejoin:round;-inkscape-stroke:none" d="M9128 1168.5a30.5 30.5 0 0 0-30.5 30.5 30.5 30.5 0 0 0 30.5 30.5h635a30.5 30.5 0 0 0 30.5-30.5 30.5 30.5 0 0 0-30.5-30.5zM9798.893 1451.5a30.5 30.5 0 0 0-21.536 9.01l-119.433 120.281-50.358-50.357a30.5 30.5 0 0 0-43.132 0 30.5 30.5 0 0 0 0 43.132l72 72a30.503 30.503 0 0 0 43.209-.076l141-142a30.5 30.5 0 0 0-.153-43.132 30.5 30.5 0 0 0-21.597-8.858z"/><g aria-label="Simple Quiz" style="fill:#fff" class="SVGTextShape"><path d="M2357.108 1480.79q0 68.427-50.907 104.79-50.577 36.031-148.755 36.031-89.583 0-140.49-31.734-50.908-31.734-65.453-96.195l94.212-15.537q9.586 37.024 37.354 53.883 27.767 16.528 77.022 16.528 102.145 0 102.145-62.146 0-19.834-11.9-32.726-11.57-12.893-33.057-21.487-21.156-8.595-81.65-20.826-52.23-12.23-72.725-19.503-20.495-7.603-37.023-17.52-16.528-10.248-28.098-24.462-11.57-14.215-18.181-33.388-6.281-19.172-6.281-43.965 0-63.138 47.27-96.525 47.602-33.718 138.178-33.718 86.608 0 129.912 27.107 43.635 27.106 56.196 89.583l-94.542 12.892q-7.272-30.082-29.75-45.288-22.148-15.206-63.8-15.206-88.592 0-88.592 55.536 0 18.18 9.256 29.75 9.587 11.57 28.098 19.834 18.512 7.934 75.039 20.165 67.105 14.214 95.864 26.445 29.09 11.9 45.949 28.099 16.859 15.867 25.784 38.345 8.925 22.148 8.925 51.238zM2430.825 1192.867v-68.428h92.889v68.428zm0 422.133v-357.673h92.889V1615ZM2829.488 1615v-200.654q0-94.211-54.213-94.211-28.098 0-45.949 28.759-17.52 28.76-17.52 74.377V1615h-92.889v-277.676q0-28.76-.992-46.94-.66-18.512-1.653-33.057h88.592q.992 6.28 2.645 33.718 1.653 27.106 1.653 37.354h1.322q17.19-40.99 42.643-59.502 25.784-18.512 61.485-18.512 81.98 0 99.5 78.014h1.984q18.181-41.651 43.635-59.833 25.454-18.18 64.791-18.18 52.23 0 79.666 35.7 27.437 35.371 27.437 101.815V1615h-92.227v-200.654q0-94.211-54.213-94.211-27.107 0-44.627 26.445-17.19 26.115-18.842 72.394V1615ZM3559.378 1434.51q0 89.584-36.031 138.508-35.702 48.593-101.154 48.593-37.684 0-65.782-16.197-27.768-16.529-42.643-47.271h-1.984q1.984 9.917 1.984 60.163v137.185h-92.89v-415.853q0-50.577-2.644-82.31h90.244q1.653 5.95 2.645 23.47 1.322 17.52 1.322 34.709h1.323q31.403-65.783 114.376-65.783 62.477 0 96.855 48.263 34.38 47.932 34.38 136.524zm-96.856 0q0-120.325-73.716-120.325-37.023 0-56.857 32.395-19.504 32.396-19.504 90.575 0 57.85 19.504 89.584 19.834 31.404 56.196 31.404 74.377 0 74.377-123.632zM3634.417 1615v-490.56h92.89V1615ZM3968.95 1621.611q-80.658 0-123.962-47.601-43.304-47.932-43.304-139.5 0-88.591 43.965-136.193 43.965-47.601 124.624-47.601 77.021 0 117.681 51.238 40.66 50.907 40.66 149.416v2.644H3899.2q0 52.23 19.173 79.005 19.503 26.446 55.204 26.446 49.255 0 62.147-42.643l87.6 7.603q-38.015 97.186-154.375 97.186zm0-312.385q-32.726 0-50.576 22.81-17.52 22.808-18.512 63.798H4038.7q-2.645-43.304-20.826-64.79-18.181-21.818-48.924-21.818zM4838.01 1379.967q0 93.22-45.95 155.367-45.618 61.815-127.268 78.344 11.24 32.726 31.404 47.27 20.495 14.546 57.188 14.546 19.504 0 39.338-3.306l-.661 66.774q-41.652 9.256-79.997 9.256-53.883 0-89.254-30.081-35.37-30.082-56.857-99.831-94.211-8.926-146.44-71.733-51.9-63.138-51.9-166.606 0-112.062 62.147-174.87 62.146-62.807 172.886-62.807t172.886 63.469q62.477 63.469 62.477 174.208zm-99.501 0q0-75.369-35.701-118.012-35.702-42.974-100.162-42.974-65.452 0-101.153 42.644-35.702 42.312-35.702 118.342 0 76.692 36.363 120.988 36.362 44.296 99.83 44.296 65.453 0 100.824-42.974 35.7-42.974 35.7-122.31zM5001.31 1257.327v200.654q0 94.211 63.468 94.211 33.718 0 54.213-28.759 20.825-29.09 20.825-74.377v-191.729h92.89v277.676q0 45.618 2.644 79.997h-88.592q-3.966-47.602-3.966-71.072h-1.653q-18.512 40.66-47.271 59.172-28.429 18.511-67.766 18.511-56.858 0-87.27-34.71-30.412-35.04-30.412-102.475v-227.099zM5327.248 1192.867v-68.428h92.889v68.428zm0 422.133v-357.673h92.889V1615ZM5495.175 1615v-65.783l168.259-224.785h-154.705v-67.105h257.18v66.444l-167.266 223.463h183.464V1615Z"/></g><path style="color:#000;fill:#fff;fill-opacity:.995627;stroke-linecap:round;stroke-linejoin:round;-inkscape-stroke:none" d="M10945 1063.5a30.5 30.5 0 0 0-30.5 30.5v352a30.5 30.5 0 0 0 30.5 30.5 30.5 30.5 0 0 0 30.5-30.5v-352a30.5 30.5 0 0 0-30.5-30.5zM11086 992.5a30.5 30.5 0 0 0-30.5 30.5v494a30.5 30.5 0 0 0 30.5 30.5 30.5 30.5 0 0 0 30.5-30.5v-494a30.5 30.5 0 0 0-30.5-30.5zM11298 921.5c-13.127 0-26.144 2.969-38.285 8.203-13.938 5.352-24.007 13.456-32.281 21.73-9.054 9.055-16.165 19.078-22.096 29.754a30.503 30.503 0 0 0-2.274 5.168c-3.643 10.93-6.564 23.126-6.564 36.645v494c0 13.518 2.921 25.716 6.564 36.645a30.503 30.503 0 0 0 2.274 5.168c5.931 10.676 12.642 20.052 20.709 29.271a30.503 30.503 0 0 0 1.387 1.482c8.215 8.216 18.217 16.25 32 21.604 13.887 5.988 27.526 7.33 38.566 7.33h283c11.044 0 24.688-1.34 38.58-7.334 13.755-5.347 23.358-13.226 31.27-20.008a30.503 30.503 0 0 0 4.55-4.857c6.244-8.326 13.024-17.658 18.471-29.914a30.503 30.503 0 0 0 1.065-2.743c3.643-10.928 6.564-23.126 6.564-36.644v-494c0-13.519-2.921-25.716-6.564-36.645a30.503 30.503 0 0 0-1.065-2.742c-5.447-12.256-12.623-22.191-19.713-30.463a30.503 30.503 0 0 0-3.308-3.308c-7.97-6.831-17.636-14.787-31.553-20.135-12.145-5.238-25.166-8.207-38.297-8.207zm0 61h283c4.481 0 9.061.903 14.613 3.371a30.503 30.503 0 0 0 1.678.688c1.556.583 6.764 3.946 12.055 8.228 3.534 4.293 6.059 8.023 8.142 12.432 1.975 6.304 3.012 11.665 3.012 15.781v494c0 4.115-1.036 9.477-3.01 15.78-2.054 4.341-4.836 8.578-8.711 13.864-5.077 4.04-9.99 7.236-11.488 7.797a30.503 30.503 0 0 0-1.678.688c-3.828 1.701-7.872 2.371-14.613 2.371h-283c-6.741 0-10.785-.67-14.613-2.371a30.503 30.503 0 0 0-1.678-.688c-1.661-.623-6.952-4.095-10.57-7.54-4.599-5.337-7.729-9.759-10.922-15.212-1.73-5.79-2.717-10.827-2.717-14.689v-494c0-3.858.987-8.889 2.713-14.672 3.281-5.589 6.089-9.497 10.353-13.762 3.604-3.603 9.402-7.355 11.143-8.007a30.503 30.503 0 0 0 1.678-.688c5.552-2.468 10.132-3.371 14.613-3.371z"/><path d="M12533.053 5321.748q0 65.453-42.973 101.154-42.974 35.701-122.31 35.701-75.039 0-119.334-34.379-44.296-34.71-51.899-99.83l94.542-8.265q8.925 67.105 76.36 67.105 33.388 0 51.899-16.528 18.512-16.529 18.512-50.577 0-31.073-22.478-47.602-22.479-16.528-66.775-16.528h-32.395v-75.039h30.412q39.998 0 60.163-16.197 20.164-16.529 20.164-46.94 0-28.76-16.197-44.958-15.868-16.528-46.61-16.528-28.759 0-46.61 15.867-17.52 15.867-20.165 44.957l-92.889-6.611q7.273-60.163 49.916-94.212 42.643-34.048 111.401-34.048 73.055 0 114.045 33.057 41.321 32.726 41.321 90.905 0 43.635-25.784 71.733-25.454 28.099-73.717 37.354v1.323q53.552 6.28 82.311 35.37 29.09 28.76 29.09 73.717z" transform="translate(-2090 -3836)" aria-label="3" style="fill:#fff" class="SVGTextShape"/><path style="color:#000;fill:#fff;fill-opacity:.995627;stroke-linecap:round;stroke-linejoin:round;-inkscape-stroke:none" d="M12867 1168.5c-13.186 0-26.263 2.989-38.451 8.268-11.899 4.583-23.242 11.792-33.115 21.666a30.503 30.503 0 0 0-1.592 1.716c-7.09 8.272-14.266 18.207-19.713 30.463a30.503 30.503 0 0 0-1.065 2.742c-3.643 10.93-6.564 23.126-6.564 36.645v283c0 14.067 2.866 26.84 6.941 37.709a30.503 30.503 0 0 0 .688 1.678c5.447 12.256 12.623 22.191 19.713 30.463a30.503 30.503 0 0 0 1.592 1.716c9.873 9.874 21.216 17.083 33.115 21.666 12.188 5.28 25.265 8.268 38.451 8.268h283c13.195 0 26.31-2.708 38.246-8.207 12.831-4.55 25.094-12.109 34.711-23.242 8.444-8.754 15.756-19.06 20.914-30.664a30.503 30.503 0 0 0 .688-1.678c4.075-10.869 6.941-23.642 6.941-37.709v-283c0-13.519-2.921-25.716-6.564-36.645a30.503 30.503 0 0 0-1.065-2.742c-5.158-11.604-12.47-21.91-20.914-30.664-9.617-11.133-21.88-18.692-34.711-23.242-11.936-5.5-25.051-8.207-38.246-8.207zm0 61h283c5.933 0 9.906 1.053 13.359 2.78a30.503 30.503 0 0 0 3.996 1.655c4.499 1.5 7.534 3.637 9.487 5.915a30.503 30.503 0 0 0 1.592 1.716c4.545 4.546 6.743 7.737 9.054 12.653 1.975 6.304 3.012 11.665 3.012 15.781v283c0 5.597-1.073 10.55-2.803 15.402-2.385 5.172-4.588 8.356-9.263 13.032a30.503 30.503 0 0 0-1.592 1.716c-1.953 2.278-4.988 4.415-9.487 5.914a30.503 30.503 0 0 0-3.996 1.657c-3.453 1.726-7.426 2.779-13.359 2.779h-283c-4.481 0-9.061-.904-14.613-3.371a30.503 30.503 0 0 0-1.678-.688c-3.609-1.353-7.703-3.885-11.447-7.445-4.034-4.812-6.698-8.71-8.959-13.594-1.73-4.852-2.803-9.805-2.803-15.402v-283c0-4.116 1.037-9.477 3.012-15.781 2.214-4.687 4.829-8.537 8.75-13.215 3.744-3.56 7.838-6.092 11.447-7.445a30.503 30.503 0 0 0 1.678-.688c5.552-2.468 10.132-3.371 14.613-3.371z"/><path style="color:#000;fill:#fff;fill-opacity:.995627;stroke-linecap:round;stroke-linejoin:round;-inkscape-stroke:none" d="M13253 886.5c-13.457 0-26.929 2.604-39.643 7.965-13.102 4.548-25.097 12.142-34.923 21.969l-121 121a30.5 30.5 0 0 0 0 43.132 30.5 30.5 0 0 0 43.132 0l121-121c3.919-3.919 7.58-6.13 12.079-7.63a30.503 30.503 0 0 0 2.742-1.065c4.786-2.127 10.68-3.371 16.613-3.371 4.481 0 10.827 1.244 15.613 3.371a30.503 30.503 0 0 0 2.742 1.064c4.499 1.5 8.16 3.712 12.079 7.631a30.503 30.503 0 0 0 .246.244l176.508 172.542c2.797 3.387 6.262 9.23 9.259 15.707 2.01 6.327 3.053 11.444 3.053 16.941 0 5.64-1.057 10.841-3.178 17.406-2.642 6.396-5.506 10.966-9.142 15.281l-122.746 122.747a30.5 30.5 0 0 0 0 43.132 30.5 30.5 0 0 0 43.132 0l124-124a30.503 30.503 0 0 0 1.592-1.716c8.024-9.361 14.989-20.592 20.16-33.522a30.503 30.503 0 0 0 .618-1.683c3.643-10.93 6.564-23.578 6.564-37.645 0-14.067-2.921-26.716-6.564-37.645a30.503 30.503 0 0 0-1.065-2.742c-4.766-10.724-10.755-22.012-19.713-32.463a30.503 30.503 0 0 0-1.838-1.96l-178-174 .246.244c-9.896-9.897-21.987-17.543-35.199-22.079-12.587-5.277-25.532-7.855-38.367-7.855z"/><path style="color:#000;fill:#fff;fill-opacity:.995627;stroke-linecap:round;stroke-linejoin:round;-inkscape-stroke:none" d="M13255 1027.5a30.5 30.5 0 0 0-30.5 30.5 30.5 30.5 0 0 0 30.5 30.5h1a30.5 30.5 0 0 0 30.5-30.5 30.5 30.5 0 0 0-30.5-30.5zM13361 1133.5a30.5 30.5 0 0 0-30.5 30.5 30.5 30.5 0 0 0 30.5 30.5h1a30.5 30.5 0 0 0 30.5-30.5 30.5 30.5 0 0 0-30.5-30.5z"/><path d="M14385.689 5319.765q0 65.452-43.304 101.815-43.304 36.031-123.632 36.031-79.666 0-123.631-36.031-43.635-36.032-43.635-101.154 0-44.626 25.784-75.038 25.784-30.743 69.088-38.015v-1.323q-37.684-8.264-60.824-37.354-23.139-29.09-23.139-67.105 0-57.188 40.329-90.244 40.659-33.057 114.706-33.057 75.7 0 116.029 32.396 40.66 32.065 40.66 91.566 0 38.016-23.14 66.775-22.809 28.76-61.485 36.362v1.322q44.957 7.273 70.41 37.024 25.784 29.42 25.784 76.03zm-107.103-212.554q0-33.057-15.206-48.263-15.206-15.536-45.949-15.536-60.163 0-60.163 63.799 0 66.774 60.824 66.774 30.412 0 45.288-15.536 15.206-15.537 15.206-51.238zm10.909 204.951q0-73.055-72.725-73.055-33.718 0-51.899 19.173-17.85 19.173-17.85 55.204 0 40.99 17.85 59.833 17.851 18.842 54.544 18.842 36.031 0 52.89-18.842 17.19-18.842 17.19-61.155z" transform="translate(-2090 -3836)" aria-label="8" style="fill:#fff" class="SVGTextShape"/><path style="color:#000;fill:#08b94e;stroke-linecap:round;stroke-linejoin:round;-inkscape-stroke:none" d="M15312.43 748.477A46.005 46.005 0 0 0 15273 794v953a46.005 46.005 0 0 0 70.875 38.693l742-477a46.005 46.005 0 0 0-.04-77.412l-742-476a46.005 46.005 0 0 0-31.408-6.804zm52.57 129.685 610.871 391.879L15365 1662.744z"/><path style="color:#000;fill:#e93147;stroke-linecap:round;stroke-linejoin:round;-inkscape-stroke:none" d="M2340 2655.5c-22.695 0-45.388 2.147-67.244 6.508-22.777 4.345-44.63 10.889-65.428 19.646-20.829 8.77-40.035 19.494-58.668 30.881a27.503 27.503 0 0 0-1.52.998c-18.002 12.708-35.289 26.725-51.585 43.022-15.93 15.929-30.086 33.3-42.155 52.789-13.351 18.951-24.14 39.545-32.746 59.984-8.77 20.829-15.124 42.165-20.334 63.002a27.503 27.503 0 0 0-.334 1.523c-4.285 22.498-6.486 44.401-6.486 67.147 0 22.746 2.153 45.491 6.533 67.393a27.503 27.503 0 0 0 .215.976c5.237 21.995 11.636 43.474 20.406 64.303 8.742 20.763 19.618 40.283 32.348 59.398 12.075 18.64 26.295 36.118 42.553 52.375 16.257 16.258 33.735 30.478 52.375 42.553 19.115 12.73 38.635 23.605 59.398 32.348 20.799 8.757 42.65 15.3 65.428 19.646 21.856 4.36 44.549 6.508 67.244 6.508 21.833 0 44.491-2.171 67.147-6.486a27.503 27.503 0 0 0 .246-.047c21.728-4.346 43.45-10.851 64.279-19.621 20.376-8.58 40.903-19.333 59.806-32.627 18.485-12.017 35.83-26.137 51.967-42.274 16.297-16.296 30.314-33.583 43.022-51.586a27.503 27.503 0 0 0 .998-1.52c11.386-18.632 22.11-37.838 30.88-58.667 8.758-20.799 15.302-42.65 19.647-65.428 4.36-21.856 6.508-44.549 6.508-67.244 0-22.746-2.201-44.65-6.486-67.147a27.503 27.503 0 0 0-.047-.246c-4.346-21.728-10.851-43.45-19.621-64.279-8.637-20.51-19.31-40.803-31.258-59.268a27.503 27.503 0 0 0-.207-.314c-12.913-19.369-27.14-36.895-43.436-53.191-16.296-16.297-33.583-30.314-51.586-43.022a27.503 27.503 0 0 0-.92-.621c-18.464-11.947-38.756-22.622-59.267-31.258-20.829-8.77-42.551-15.275-64.28-19.62a27.503 27.503 0 0 0-.246-.048c-22.655-4.315-45.313-6.486-67.146-6.486zm0 55c18.12 0 37.411 1.822 56.707 5.488 18.238 3.655 36.481 9.14 53.621 16.358 17.327 7.295 34.856 16.522 50.287 26.468 15.81 11.192 30.374 23.066 43.94 36.631 13.657 13.658 25.396 28.086 36.45 44.647 10.017 15.5 19.309 33.146 26.65 50.58 7.217 17.141 12.702 35.385 16.357 53.625 3.695 19.444 5.488 37.5 5.488 56.703 0 19.254-1.847 38.509-5.467 56.607a27.503 27.503 0 0 0-.047.246c-3.655 19.188-9.102 37.304-16.332 54.475-7.127 16.926-16.271 33.494-26.695 50.598-11.127 15.688-22.93 30.154-36.404 43.629-13.704 13.703-28.184 25.45-43.495 35.357a27.503 27.503 0 0 0-.92.621c-14.993 10.584-32.323 19.757-49.812 27.121-17.14 7.217-35.383 12.703-53.621 16.358-19.296 3.666-38.586 5.488-56.707 5.488-19.254 0-38.509-1.847-56.608-5.467a27.503 27.503 0 0 0-.246-.047c-19.187-3.655-37.303-9.102-54.474-16.332s-33.592-16.317-50.418-27.535a27.503 27.503 0 0 0-.315-.207c-15.31-9.907-29.79-21.654-43.494-35.357-13.703-13.704-25.45-28.184-35.357-43.495a27.503 27.503 0 0 0-.207-.314c-11.218-16.827-20.305-33.247-27.535-50.418-7.16-17.006-12.716-35.347-17.45-55.13-3.566-17.982-5.396-37.088-5.396-56.198 0-18.976 1.766-36.84 5.373-56.022 4.753-18.916 10.331-37.345 17.473-54.306 7.364-17.49 16.537-34.819 27.12-49.813a27.503 27.503 0 0 0 .999-1.52c9.754-15.96 21.277-30.19 34.98-43.894 13.475-13.475 27.941-25.278 43.63-36.404 17.103-10.424 33.67-19.569 50.597-26.695 17.17-7.23 35.287-12.678 54.474-16.332a27.503 27.503 0 0 0 .246-.047c18.099-3.62 37.354-5.467 56.608-5.467z"/><path d="M15901.47 5451v-64.46q18.181-39.999 51.569-78.014 33.717-38.015 84.625-79.336 48.923-39.668 68.427-65.452 19.834-25.784 19.834-50.577 0-60.824-61.155-60.824-29.751 0-45.618 16.198-15.537 15.867-20.165 47.932l-93.55-5.29q7.934-64.79 48.263-98.839 40.659-34.048 110.409-34.048 75.369 0 115.698 34.379 40.329 34.379 40.329 96.525 0 32.726-12.892 59.172-12.892 26.445-33.056 48.924-20.165 22.148-44.958 41.65-24.461 19.504-47.601 38.016-23.14 18.512-42.313 37.354-18.842 18.842-28.098 40.33h216.191V5451Z" transform="translate(-2090 -3836)" aria-label="2" style="fill:#fff" class="SVGTextShape"/><g aria-label="Mon" style="fill:#dadada" class="SVGTextShape"><path d="M2232.124 4179v-174.873q0-29.021 1.674-55.81-9.115 33.3-16.37 52.09L2149.71 4179h-24.928l-68.647-178.594-10.418-31.626-6.14-20.464.559 20.65.744 35.161V4179h-31.626v-262.123h46.695l69.763 181.756q3.72 10.976 7.07 23.626 3.534 12.465 4.65 18.046 1.488-7.442 6.14-22.51 4.836-15.255 6.51-19.162l68.462-181.757h45.578V4179ZM2491.271 4078.169q0 52.834-23.254 78.693-23.255 25.859-67.531 25.859-44.09 0-66.6-26.79-22.511-26.974-22.511-77.762 0-104.18 90.227-104.18 46.137 0 67.903 25.487 21.766 25.3 21.766 78.693zm-35.16 0q0-41.672-12.465-60.462-12.278-18.975-41.486-18.975-29.393 0-42.602 19.348-13.022 19.161-13.022 60.089 0 39.811 12.836 59.903 13.022 19.906 40.742 19.906 30.137 0 42.974-19.348 13.022-19.347 13.022-60.461zM2660.749 4179v-127.62q0-19.906-3.907-30.882-3.907-10.976-12.464-15.813-8.558-4.837-25.115-4.837-24.184 0-38.137 16.557t-13.953 45.951V4179h-33.486v-158.316q0-35.16-1.116-42.974h31.626q.186.93.372 5.023t.372 9.488q.372 5.209.744 19.905h.558q11.534-20.836 26.603-29.393 15.255-8.744 37.765-8.744 33.115 0 48.37 16.557 15.44 16.372 15.44 54.323V4179Z"/></g><g aria-label="Tue" style="fill:#dadada" class="SVGTextShape"><path d="M4202.945 3945.898V4179H4167.6v-233.102h-90.041v-29.022h215.428v29.022zM4346.006 3977.71v127.62q0 19.906 3.907 30.882 3.907 10.976 12.464 15.813 8.558 4.837 25.115 4.837 24.185 0 38.137-16.557 13.953-16.557 13.953-45.951V3977.71h33.486v158.316q0 35.16 1.117 42.974h-31.626q-.186-.93-.373-5.023-.185-4.093-.558-9.302-.186-5.395-.558-20.092h-.558q-11.534 20.836-26.789 29.58-15.069 8.558-37.579 8.558-33.114 0-48.555-16.371-15.255-16.558-15.255-54.509V3977.71ZM4550.831 4085.424q0 34.603 14.325 53.392 14.325 18.79 41.858 18.79 21.766 0 34.788-8.744 13.209-8.743 17.86-22.138l29.393 8.372q-18.045 47.625-82.041 47.625-44.649 0-68.09-26.603-23.254-26.603-23.254-79.065 0-49.858 23.255-76.46 23.44-26.604 66.786-26.604 88.74 0 88.74 106.97v4.465zm109.017-25.673q-2.79-31.812-16.185-46.322-13.395-14.697-38.51-14.697-24.37 0-38.695 16.371-14.139 16.185-15.255 44.648z"/></g><path style="color:#000;fill:#08b94e;stroke-linecap:round;stroke-linejoin:round;-inkscape-stroke:none" d="M8473.705 2655.082c-3.57.043-7.232.2-10.988.514-11.503.958-23.717 1.984-36.049 4.125-14.587 1.324-27.625 4.671-39.338 7.6a27.503 27.503 0 0 0-.566.148c-11.852 3.232-24.636 7.507-37.573 12.855-12.159 4.446-24.436 9.989-36.078 16.947-11.344 6.212-22.107 12.657-32.883 20.2-10.705 7.494-20.649 15.218-30.5 23.974-9.756 8.672-18.175 17.11-27.175 26.11a27.503 27.503 0 0 0-1.11 1.175c-9.428 10.607-16.758 21.166-23.152 29.387a27.503 27.503 0 0 0-1.494 2.12c-7.022 11.033-13.227 21.392-19.381 32.615-7.11 11.849-12.453 23.77-17.453 34.77-5.548 12.203-10.164 24.857-13.596 38.532-3.08 11.316-6.274 24.004-8.494 37.324-2.244 13.467-3.279 26.239-4.279 38.239a244.003 244.003 0 0 0 0 40.566c1.01 12.126 2.075 24.017 4.279 37.238 2.244 13.467 5.482 26.307 8.594 37.715a27.503 27.503 0 0 0 .443 1.46c4.145 12.434 8.244 23.702 12.244 34.702a27.503 27.503 0 0 0 .809 1.98c4.987 10.974 10.323 22.862 17.406 34.682 6.182 11.28 12.596 21.99 20.1 32.71a27.503 27.503 0 0 0 .822 1.113c7.173 9.222 15.48 19.63 24.152 29.386 9.428 10.607 19.285 19.286 28.285 27.286 9.851 8.756 19.795 16.48 30.5 23.974 11.008 7.706 21.987 14.278 33.602 20.614a27.503 27.503 0 0 0 .869.455c9.344 4.672 21.134 11.24 34.901 16.246 12.006 4.366 25.481 8.502 37.162 11.687l-1.459-.443c14.609 4.87 28.064 7.021 38.775 8.969a27.503 27.503 0 0 0 .399.068A246.254 246.254 0 0 0 8466 3345.5c12.755.943 25.532.966 38.283-.096 13.512-1.126 26.238-3.28 38.238-5.28 13.711-2.285 25.498-5.532 37.149-8.445a27.503 27.503 0 0 0 2.728-.836c11-4 22.723-8.237 34.981-13.809 10.945-4.974 22.801-10.3 34.592-17.357 12.393-6.835 23.329-14.52 32.892-21.957 11.215-7.969 20.698-16.425 29.407-24.166 10.606-9.428 19.285-19.285 27.285-28.285 9.428-10.607 17.333-21.965 24.027-33.121l-1.053 1.62c7.706-11.007 14.278-21.986 20.614-33.6a27.503 27.503 0 0 0 .455-.87c5.328-10.656 10.437-21.92 15.437-32.92a27.503 27.503 0 0 0 1.053-2.683c4.234-12.703 7.414-24.375 10.465-36.55 3.099-11.366 6.584-24.82 7.84-39.77 0-.032 0-.06.01-.093a246.105 246.105 0 0 0 3-36v-.1c1.238-14.983 0-28.494-1.004-40.466-1.136-13.639-3.32-25.483-5.279-37.239a27.5 27.5 0 0 0-31.646-22.603 27.5 27.5 0 0 0-22.604 31.646c2.041 12.244 3.857 22.4 4.721 32.762 1 12 1.748 22.457 1 31.433a27.503 27.503 0 0 0-.1 2.284c0 10.472-.869 20.944-2.625 31.478a27.503 27.503 0 0 0-.279 2.238c-.748 8.976-3.239 19.456-6.127 30.047a27.503 27.503 0 0 0-.149.567c-2.799 11.198-5.521 21.076-9.019 31.707-4.695 10.326-9.302 20.418-13.703 29.246-5.571 10.185-10.929 19.093-17.127 27.947a27.503 27.503 0 0 0-1.053 1.621c-5.306 8.844-11.401 17.486-17.973 24.88-8 9-15.321 17.142-22.715 23.714-9 8-17.213 15.225-25.5 21.025a27.503 27.503 0 0 0-1.113.823c-8.221 6.394-17.028 12.515-26.285 17.564a27.503 27.503 0 0 0-.98.56c-8.151 4.891-18.231 9.547-29.231 14.547-9.354 4.252-19.239 7.895-29.746 11.72-11.657 2.927-21.542 5.548-31.396 7.19-12 2-23.274 3.847-33.762 4.721a188.752 188.752 0 0 1-31.434 0 27.503 27.503 0 0 0-2.274-.094c-10.434 0-20.868-.868-31.363-2.61-11.178-2.032-21.632-3.874-30.942-6.978a27.503 27.503 0 0 0-1.459-.443c-10.319-2.814-22.844-6.678-32.838-10.312-8.071-2.936-18.064-8.223-28.494-13.45-10.268-5.61-19.223-10.998-28.134-17.236-9.295-6.506-17.351-12.781-25.5-20.025-9-8-17.143-15.322-23.715-22.715-7.146-8.04-14.616-17.344-21.315-25.942-6.165-8.848-11.524-17.74-17.097-27.957a27.503 27.503 0 0 0-.561-.98c-4.74-7.9-9.271-17.66-14.098-28.266-3.785-10.41-7.485-20.63-11.14-31.556-2.817-10.376-5.503-21.257-7.219-31.551-1.796-10.778-2.731-20.888-3.721-32.762a188.747 188.747 0 0 1 0-31.433c1-12 1.965-23.228 3.721-33.762 1.756-10.534 4.518-21.694 7.406-32.285a27.503 27.503 0 0 0 .149-.567c2.564-10.256 5.927-19.548 10.355-29.29 5-11 9.657-21.08 14.547-29.231a27.503 27.503 0 0 0 .561-.98c5.511-10.105 11.022-19.293 17.548-29.577 7.064-9.15 13.377-17.934 19.551-24.935 8.633-8.632 16.042-16.004 24.028-23.102 8.149-7.244 16.205-13.52 25.5-20.025 8.992-6.295 18.013-11.723 28.398-17.387a27.503 27.503 0 0 0 .98-.56c8.151-4.89 17.634-9.242 27.25-12.739a27.503 27.503 0 0 0 1.178-.459c10.724-4.468 21.59-8.09 31.447-10.787 11.847-2.959 22.378-5.453 31.26-6.193a27.503 27.503 0 0 0 2.637-.348c9.124-1.659 20.363-2.652 32.363-3.652 8.976-.748 19.434 0 31.434 1a27.503 27.503 0 0 0 2.283.096c8.944 0 19.479 1.625 31.479 3.625 10.289 1.715 19.695 4.252 30.826 7.963a27.503 27.503 0 0 0 1.459.443c9.911 2.703 20.686 6.335 29.857 10.504 10.429 4.74 19.724 9.387 30.211 15.107a27.5 27.5 0 0 0 37.311-10.974 27.5 27.5 0 0 0-10.975-37.31c-11.513-6.28-22.218-11.634-33.789-16.894-12.585-5.72-25.527-10-37.428-13.275-12.611-4.175-24.984-7.573-38.43-9.814-11.475-1.913-24.334-4.112-38.599-4.305-8.908-.744-18.642-1.616-29.217-1.488z"/><path style="color:#000;fill:#08b94e;stroke-linecap:round;stroke-linejoin:round;-inkscape-stroke:none" d="M8802.033 2719.414a27.5 27.5 0 0 0-26.539 7.201l-297.555 299.434-76.494-76.494a27.5 27.5 0 0 0-38.89 0 27.5 27.5 0 0 0 0 38.89l96 96a27.503 27.503 0 0 0 38.951-.06l317-319a27.5 27.5 0 0 0-.121-38.891 27.5 27.5 0 0 0-12.352-7.08zM6435.51 2655.968c-3.57.043-7.232.2-10.988.513-11.503.959-23.717 1.985-36.049 4.125-14.587 1.325-27.625 4.672-39.338 7.6a27.503 27.503 0 0 0-.566.148c-11.852 3.233-24.636 7.507-37.573 12.856-12.159 4.446-24.436 9.988-36.078 16.947-11.344 6.212-22.107 12.656-32.883 20.2-10.705 7.493-20.649 15.218-30.5 23.974-9.756 8.672-18.175 17.11-27.175 26.11a27.503 27.503 0 0 0-1.11 1.175c-9.428 10.607-16.758 21.166-23.152 29.387a27.503 27.503 0 0 0-1.494 2.119c-7.022 11.034-13.227 21.392-19.38 32.615-7.11 11.85-12.454 23.77-17.454 34.77-5.548 12.204-10.164 24.858-13.596 38.533-3.08 11.315-6.274 24.003-8.494 37.324-2.244 13.466-3.279 26.238-4.279 38.238a244.003 244.003 0 0 0 0 40.567c1.01 12.126 2.075 24.016 4.28 37.238 2.243 13.466 5.481 26.307 8.593 37.715a27.503 27.503 0 0 0 .443 1.459c4.145 12.435 8.244 23.703 12.244 34.703a27.503 27.503 0 0 0 .81 1.98c4.986 10.973 10.322 22.862 17.405 34.682 6.182 11.279 12.596 21.99 20.1 32.71a27.503 27.503 0 0 0 .822 1.112c7.173 9.223 15.48 19.631 24.152 29.387 9.428 10.607 19.285 19.285 28.285 27.285 9.851 8.756 19.795 16.481 30.5 23.975 11.008 7.706 21.987 14.278 33.602 20.613a27.503 27.503 0 0 0 .87.455c9.343 4.672 21.133 11.24 34.9 16.246 12.006 4.366 25.481 8.502 37.162 11.688l-1.459-.443c14.61 4.87 28.064 7.02 38.775 8.968a27.503 27.503 0 0 0 .4.068 246.254 246.254 0 0 0 40.52 3.375c12.755.943 25.532.967 38.283-.096 13.512-1.126 26.238-3.279 38.238-5.279 13.711-2.285 25.498-5.533 37.15-8.445a27.503 27.503 0 0 0 2.727-.836c11-4 22.723-8.237 34.981-13.809 10.945-4.975 22.801-10.3 34.592-17.357 12.393-6.835 23.33-14.52 32.892-21.957 11.215-7.969 20.698-16.426 29.407-24.166 10.606-9.428 19.285-19.286 27.285-28.286 9.428-10.606 17.333-21.965 24.027-33.12l-1.053 1.62c7.706-11.007 14.278-21.986 20.614-33.601a27.503 27.503 0 0 0 .455-.87c5.328-10.655 10.437-21.92 15.437-32.92a27.503 27.503 0 0 0 1.053-2.683c4.234-12.702 7.414-24.374 10.465-36.548 3.1-11.368 6.584-24.822 7.84-39.772 0-.031 0-.06.01-.092a246.105 246.105 0 0 0 3-36v-.1c1.238-14.983 0-28.494-1.004-40.467-1.136-13.638-3.32-25.483-5.279-37.238a27.5 27.5 0 0 0-31.646-22.604 27.5 27.5 0 0 0-22.604 31.647c2.041 12.244 3.857 22.4 4.721 32.762 1 12 1.748 22.457 1 31.433a27.503 27.503 0 0 0-.1 2.283c0 10.473-.869 20.945-2.625 31.479a27.503 27.503 0 0 0-.279 2.238c-.748 8.976-3.239 19.455-6.127 30.047a27.503 27.503 0 0 0-.149.566c-2.799 11.199-5.52 21.077-9.019 31.707-4.695 10.327-9.302 20.419-13.703 29.247-5.57 10.184-10.929 19.093-17.127 27.947a27.503 27.503 0 0 0-1.053 1.621c-5.306 8.844-11.4 17.485-17.973 24.879-8 9-15.32 17.143-22.715 23.715-9 8-17.213 15.225-25.5 21.025a27.503 27.503 0 0 0-1.113.822c-8.22 6.394-17.028 12.515-26.285 17.565a27.503 27.503 0 0 0-.98.56c-8.15 4.89-18.23 9.547-29.23 14.547-9.355 4.252-19.24 7.895-29.747 11.719-11.657 2.928-21.542 5.55-31.396 7.191-12 2-23.274 3.847-33.762 4.721a188.752 188.752 0 0 1-31.434 0 27.503 27.503 0 0 0-2.274-.094c-10.434 0-20.868-.869-31.363-2.611-11.178-2.032-21.632-3.874-30.942-6.977a27.503 27.503 0 0 0-1.459-.443c-10.319-2.815-22.844-6.679-32.838-10.313-8.07-2.935-18.064-8.222-28.494-13.449-10.268-5.61-19.223-10.998-28.134-17.236-9.295-6.506-17.35-12.782-25.5-20.026-9-8-17.143-15.32-23.715-22.714-7.146-8.04-14.616-17.345-21.315-25.942-6.165-8.848-11.524-17.74-17.097-27.957a27.503 27.503 0 0 0-.56-.98c-4.74-7.9-9.272-17.66-14.099-28.266-3.785-10.41-7.485-20.63-11.14-31.557-2.817-10.375-5.503-21.256-7.219-31.55-1.796-10.779-2.73-20.888-3.72-32.762a188.747 188.747 0 0 1 0-31.434c1-12 1.964-23.228 3.72-33.761 1.756-10.534 4.518-21.694 7.406-32.286a27.503 27.503 0 0 0 .15-.566c2.563-10.256 5.926-19.549 10.354-29.291 5-11 9.657-21.08 14.547-29.23a27.503 27.503 0 0 0 .561-.98c5.511-10.105 11.022-19.293 17.548-29.577 7.064-9.15 13.377-17.934 19.551-24.936 8.633-8.631 16.042-16.003 24.028-23.101 8.15-7.244 16.205-13.52 25.5-20.026 8.992-6.294 18.013-11.722 28.398-17.386a27.503 27.503 0 0 0 .98-.56c8.151-4.891 17.634-9.242 27.25-12.74a27.503 27.503 0 0 0 1.178-.458c10.724-4.469 21.59-8.09 31.447-10.787 11.847-2.959 22.378-5.453 31.26-6.194a27.503 27.503 0 0 0 2.637-.347c9.124-1.66 20.363-2.653 32.363-3.653 8.976-.748 19.434 0 31.434 1a27.503 27.503 0 0 0 2.283.096c8.944 0 19.48 1.625 31.48 3.625 10.288 1.715 19.694 4.253 30.825 7.963a27.503 27.503 0 0 0 1.46.444c9.91 2.703 20.685 6.335 29.856 10.504 10.43 4.74 19.724 9.387 30.211 15.107a27.5 27.5 0 0 0 37.311-10.975 27.5 27.5 0 0 0-10.975-37.31c-11.513-6.28-22.218-11.633-33.789-16.893-12.585-5.72-25.527-10-37.428-13.275-12.61-4.176-24.984-7.574-38.43-9.815-11.475-1.912-24.334-4.11-38.599-4.304-8.908-.744-18.642-1.616-29.217-1.489z"/><path style="color:#000;fill:#08b94e;stroke-linecap:round;stroke-linejoin:round;-inkscape-stroke:none" d="M6763.838 2720.3a27.5 27.5 0 0 0-26.539 7.2l-297.555 299.435-76.494-76.495a27.5 27.5 0 0 0-38.89 0 27.5 27.5 0 0 0 0 38.891l96 96a27.503 27.503 0 0 0 38.951-.061l317-319a27.5 27.5 0 0 0-.12-38.89 27.5 27.5 0 0 0-12.353-7.08zM4397.912 2655.936c-3.57.043-7.232.2-10.988.514-11.503.958-23.717 1.985-36.05 4.125-14.586 1.324-27.624 4.671-39.337 7.6a27.503 27.503 0 0 0-.566.148c-11.852 3.232-24.636 7.507-37.573 12.855-12.16 4.446-24.436 9.989-36.078 16.948-11.344 6.212-22.107 12.656-32.883 20.199-10.705 7.494-20.65 15.219-30.5 23.975-9.756 8.671-18.175 17.109-27.175 26.109a27.503 27.503 0 0 0-1.11 1.176c-9.428 10.606-16.758 21.166-23.152 29.386a27.503 27.503 0 0 0-1.494 2.12c-7.022 11.033-13.227 21.392-19.381 32.615-7.11 11.85-12.453 23.77-17.453 34.77-5.548 12.203-10.164 24.857-13.596 38.532-3.08 11.316-6.274 24.004-8.494 37.325-2.244 13.466-3.28 26.238-4.28 38.238a244.003 244.003 0 0 0 0 40.566c1.01 12.126 2.076 24.017 4.28 37.239 2.244 13.466 5.482 26.306 8.594 37.714a27.503 27.503 0 0 0 .443 1.46c4.145 12.434 8.244 23.703 12.244 34.703a27.503 27.503 0 0 0 .809 1.98c4.987 10.973 10.323 22.861 17.406 34.682 6.182 11.278 12.596 21.99 20.1 32.709a27.503 27.503 0 0 0 .822 1.113c7.173 9.223 15.48 19.63 24.152 29.387 9.428 10.606 19.285 19.285 28.285 27.285 9.85 8.756 19.795 16.48 30.5 23.974 11.008 7.706 21.987 14.278 33.602 20.614a27.503 27.503 0 0 0 .869.455c9.344 4.672 21.134 11.24 34.9 16.246 12.007 4.366 25.482 8.502 37.163 11.687l-1.46-.443c14.61 4.87 28.065 7.021 38.776 8.969a27.503 27.503 0 0 0 .399.068 246.254 246.254 0 0 0 40.52 3.375c12.756.943 25.533.967 38.284-.096 13.512-1.126 26.238-3.28 38.238-5.28 13.71-2.285 25.498-5.532 37.149-8.445a27.503 27.503 0 0 0 2.728-.836c11-4 22.723-8.237 34.98-13.808 10.946-4.975 22.802-10.301 34.593-17.358 12.393-6.834 23.329-14.52 32.892-21.957 11.215-7.968 20.698-16.425 29.407-24.166 10.606-9.428 19.285-19.285 27.285-28.285 9.428-10.607 17.333-21.965 24.027-33.121l-1.053 1.621c7.706-11.008 14.278-21.986 20.614-33.602a27.503 27.503 0 0 0 .455-.869c5.328-10.656 10.437-21.92 15.437-32.92a27.503 27.503 0 0 0 1.053-2.683c4.234-12.702 7.414-24.375 10.465-36.549 3.099-11.367 6.584-24.821 7.84-39.772 0-.03 0-.06.01-.091a246.105 246.105 0 0 0 3-36v-.1c1.238-14.984 0-28.494-1.004-40.467-1.136-13.638-3.32-25.483-5.28-37.239a27.5 27.5 0 0 0-31.645-22.603 27.5 27.5 0 0 0-22.604 31.646c2.04 12.245 3.857 22.4 4.72 32.762 1 12 1.749 22.458 1 31.434a27.503 27.503 0 0 0-.1 2.283c0 10.472-.868 20.945-2.624 31.478a27.503 27.503 0 0 0-.28 2.239c-.747 8.976-3.238 19.455-6.126 30.047a27.503 27.503 0 0 0-.15.566c-2.798 11.198-5.52 21.076-9.018 31.707-4.695 10.326-9.302 20.418-13.703 29.246-5.571 10.185-10.93 19.093-17.127 27.947a27.503 27.503 0 0 0-1.053 1.621c-5.306 8.844-11.401 17.486-17.973 24.88-8 9-15.321 17.142-22.715 23.714-9 8-17.213 15.225-25.5 21.026a27.503 27.503 0 0 0-1.113.822c-8.221 6.394-17.028 12.515-26.285 17.564a27.503 27.503 0 0 0-.98.56c-8.151 4.891-18.231 9.548-29.231 14.548-9.354 4.252-19.24 7.895-29.746 11.718-11.657 2.929-21.542 5.55-31.396 7.192-12 2-23.274 3.847-33.762 4.72a188.752 188.752 0 0 1-31.434 0 27.503 27.503 0 0 0-2.274-.093c-10.434 0-20.868-.869-31.363-2.612-11.178-2.031-21.632-3.873-30.942-6.976a27.503 27.503 0 0 0-1.46-.444c-10.318-2.814-22.843-6.678-32.837-10.312-8.071-2.935-18.064-8.223-28.494-13.45-10.268-5.61-19.223-10.998-28.134-17.236-9.295-6.506-17.351-12.781-25.5-20.025-9-8-17.143-15.321-23.715-22.715-7.146-8.039-14.616-17.344-21.315-25.941-6.165-8.848-11.524-17.74-17.097-27.957a27.503 27.503 0 0 0-.561-.98c-4.74-7.9-9.271-17.66-14.098-28.267-3.785-10.41-7.485-20.63-11.14-31.556-2.817-10.376-5.503-21.256-7.22-31.55-1.795-10.779-2.73-20.889-3.72-32.763a188.747 188.747 0 0 1 0-31.433c1-12 1.965-23.228 3.72-33.762 1.757-10.534 4.519-21.693 7.407-32.285a27.503 27.503 0 0 0 .149-.567c2.564-10.256 5.927-19.548 10.355-29.29 5-11 9.657-21.08 14.547-29.231a27.503 27.503 0 0 0 .56-.98c5.512-10.105 11.023-19.293 17.549-29.577 7.064-9.15 13.377-17.934 19.55-24.935 8.634-8.632 16.043-16.004 24.029-23.102 8.149-7.244 16.205-13.519 25.5-20.025 8.992-6.295 18.013-11.722 28.398-17.387a27.503 27.503 0 0 0 .98-.56c8.15-4.89 17.634-9.242 27.25-12.739a27.503 27.503 0 0 0 1.178-.459c10.724-4.468 21.59-8.09 31.447-10.787 11.847-2.959 22.378-5.453 31.26-6.193a27.503 27.503 0 0 0 2.637-.348c9.124-1.659 20.363-2.652 32.363-3.652 8.976-.748 19.434 0 31.434 1a27.503 27.503 0 0 0 2.283.096c8.944 0 19.479 1.625 31.479 3.625 10.289 1.715 19.695 4.253 30.826 7.963a27.503 27.503 0 0 0 1.459.443c9.91 2.703 20.686 6.335 29.857 10.504 10.429 4.74 19.724 9.387 30.21 15.107a27.5 27.5 0 0 0 37.312-10.974 27.5 27.5 0 0 0-10.975-37.31c-11.513-6.28-22.218-11.634-33.79-16.893-12.584-5.72-25.526-10.001-37.427-13.276-12.611-4.175-24.984-7.573-38.43-9.814-11.475-1.913-24.334-4.111-38.6-4.305-8.907-.744-18.641-1.616-29.216-1.488z"/><path style="color:#000;fill:#08b94e;stroke-linecap:round;stroke-linejoin:round;-inkscape-stroke:none" d="M4726.24 2720.268a27.5 27.5 0 0 0-26.54 7.201l-297.554 299.434-76.494-76.494a27.5 27.5 0 0 0-38.89 0 27.5 27.5 0 0 0 0 38.89l96 96a27.503 27.503 0 0 0 38.95-.06l317-319a27.5 27.5 0 0 0-.12-38.891 27.5 27.5 0 0 0-12.352-7.08z"/><g aria-label="Wed" style="fill:#dadada" class="SVGTextShape"><path d="M6331.1 4179h-42.417l-45.393-166.501q-4.464-15.627-13.022-55.997-4.837 21.58-8.186 36.09-3.348 14.511-50.787 186.408h-42.416l-77.205-262.123h37.021l47.067 166.5q8.372 31.255 15.441 64.37 4.465-20.465 10.232-44.65 5.953-24.184 51.718-186.22h34.044l45.579 163.152q10.418 39.998 16.371 67.717l1.674-6.511q5.023-21.394 8.186-34.789 3.162-13.58 52.276-189.57h37.02zM6454.068 4085.424q0 34.603 14.325 53.392 14.325 18.79 41.858 18.79 21.766 0 34.789-8.744 13.208-8.743 17.859-22.138l29.393 8.372q-18.045 47.625-82.041 47.625-44.648 0-68.089-26.603-23.254-26.603-23.254-79.065 0-49.858 23.254-76.46 23.44-26.604 66.787-26.604 88.739 0 88.739 106.97v4.465zm109.017-25.673q-2.79-31.812-16.185-46.322-13.395-14.697-38.51-14.697-24.37 0-38.695 16.371-14.138 16.185-15.255 44.648zM6767.352 4146.63q-9.302 19.347-24.743 27.72-15.255 8.37-37.951 8.37-38.138 0-56.183-25.672-17.86-25.673-17.86-77.763 0-105.296 74.043-105.296 22.882 0 38.137 8.372 15.255 8.371 24.557 26.603h.372l-.372-22.51v-83.53h33.486v234.59q0 31.44 1.116 41.486h-31.998q-.558-2.977-1.302-13.767-.558-10.79-.558-18.603zm-101.576-68.461q0 42.23 11.162 60.461 11.163 18.232 36.277 18.232 28.464 0 41.3-19.72 12.837-19.72 12.837-61.205 0-39.998-12.837-58.602-12.836-18.603-40.928-18.603-25.3 0-36.649 18.79-11.162 18.603-11.162 60.647z"/></g><path style="color:#000;fill:#e0ac00;stroke-linecap:round;stroke-linejoin:round;-inkscape-stroke:none" d="M10541 2655.05c-22.508 0-45.016 2.745-67.516 8.233a27.5 27.5 0 0 0-20.201 33.233 27.5 27.5 0 0 0 33.233 20.2c36.999-9.024 71.969-9.024 108.968 0a27.5 27.5 0 0 0 33.233-20.2 27.5 27.5 0 0 0-20.201-33.233c-22.5-5.488-45.008-8.232-67.516-8.232zM10720.5 2709.613a27.5 27.5 0 0 0-24.967 11.528 27.5 27.5 0 0 0 6.608 38.326c31.492 22.23 58.162 48.9 80.392 80.392a27.5 27.5 0 0 0 38.326 6.608 27.5 27.5 0 0 0 6.608-38.326c-25.77-36.508-57.1-67.838-93.608-93.608a27.5 27.5 0 0 0-13.359-4.92zM10845.484 2913.283a27.5 27.5 0 0 0-20.201 33.233c9.025 37 9.025 71.969 0 108.968a27.5 27.5 0 0 0 20.201 33.233 27.5 27.5 0 0 0 33.233-20.201c10.975-45 10.975-90.031 0-135.032a27.5 27.5 0 0 0-33.233-20.2zM10807.5 3150.613a27.5 27.5 0 0 0-24.967 11.528c-22.23 31.492-48.816 58.026-79.941 79.082a27.5 27.5 0 0 0-7.369 38.185 27.5 27.5 0 0 0 38.185 7.37c36.875-24.945 68.289-56.41 94.059-92.919a27.5 27.5 0 0 0-6.608-38.326 27.5 27.5 0 0 0-13.359-4.92zM10485.896 3285.139a27.5 27.5 0 0 0-32.757 20.964 27.5 27.5 0 0 0 20.965 32.758c44.658 9.803 89.134 9.803 133.792 0a27.5 27.5 0 0 0 20.965-32.757 27.5 27.5 0 0 0-32.757-20.965c-37.342 8.196-72.866 8.196-110.208 0zM10274.5 3150.613a27.5 27.5 0 0 0-13.359 4.92 27.5 27.5 0 0 0-6.608 38.326c25.917 36.716 57.53 67.186 94.914 92.82a27.5 27.5 0 0 0 38.233-7.126 27.5 27.5 0 0 0-7.127-38.233c-32.616-22.365-59.003-47.895-81.086-79.18a27.5 27.5 0 0 0-24.967-11.527zM10237.516 2913.283a27.5 27.5 0 0 0-33.233 20.201c-10.975 45-10.975 90.031 0 135.032a27.5 27.5 0 0 0 33.233 20.2 27.5 27.5 0 0 0 20.201-33.232c-9.025-37-9.025-71.969 0-108.968a27.5 27.5 0 0 0-20.201-33.233zM10362.871 2709.582a27.5 27.5 0 0 0-13.424 4.738c-37.585 25.773-68.211 56.438-94.824 93.696a27.5 27.5 0 0 0 6.393 38.361 27.5 27.5 0 0 0 38.361-6.393c23.387-32.742 48.762-58.077 81.176-80.304a27.5 27.5 0 0 0 7.127-38.233 27.5 27.5 0 0 0-24.809-11.865zM10541 2941.5c-15.111 0-31.044 5.653-42.445 17.055-11.402 11.401-17.055 27.334-17.055 42.445s5.653 31.044 17.055 42.445c11.401 11.402 27.334 17.055 42.445 17.055s31.044-5.653 42.445-17.055c11.402-11.401 17.055-27.334 17.055-42.445s-5.653-31.044-17.055-42.445c-11.401-11.402-27.334-17.055-42.445-17.055zm0 55c2.889 0 2.956.347 3.555.945.598.599.945.666.945 3.555 0 2.889-.347 2.956-.945 3.555-.599.598-.666.945-3.555.945-2.889 0-2.956-.347-3.555-.945-.598-.599-.945-.666-.945-3.555 0-2.889.347-2.956.945-3.555.599-.598.666-.945 3.555-.945z"/><g aria-label="Thu" style="fill:#dadada" class="SVGTextShape"><path d="M8292.945 3945.898V4179h-35.346v-233.102h-90.041v-29.022h215.428v29.022zM8450.703 4012.127q10.79-19.72 25.859-28.836 15.255-9.302 38.509-9.302 32.742 0 48.183 16.371 15.627 16.185 15.627 54.509V4179h-33.672v-127.62q0-21.208-3.907-31.44-3.906-10.418-12.836-15.255-8.93-4.837-24.743-4.837-23.626 0-37.951 16.371-14.139 16.371-14.139 44.09V4179h-33.486v-276.076h33.486v71.81q0 11.348-.744 23.44-.558 12.092-.744 13.953zM8662.039 3977.71v127.62q0 19.906 3.907 30.882 3.907 10.976 12.464 15.813 8.558 4.837 25.115 4.837 24.184 0 38.137-16.557t13.953-45.951V3977.71h33.486v158.316q0 35.16 1.116 42.974h-31.626q-.186-.93-.372-5.023t-.558-9.302q-.186-5.395-.558-20.092h-.558q-11.534 20.836-26.789 29.58-15.069 8.558-37.579 8.558-33.114 0-48.555-16.371-15.255-16.558-15.255-54.509V3977.71Z"/></g><g aria-label="Fri" style="fill:#dadada" class="SVGTextShape"><path d="M10373.787 3945.898v97.482h146.223v29.394h-146.223V4179h-35.533v-262.123h186.221v29.02zM10566.147 4179v-154.41q0-21.207-1.116-46.88h31.626q1.488 34.23 1.488 41.114h.744q8-25.86 18.418-35.347 10.418-9.488 29.393-9.488 6.697 0 13.581 1.86v30.696q-6.698-1.86-17.86-1.86-20.836 0-31.812 18.046-10.976 17.859-10.976 51.345V4179ZM10692.093 3934.922v-31.998h33.486v31.998zm0 244.078v-201.29h33.486V4179Z"/></g><g aria-label="Sat" style="fill:#dadada" class="SVGTextShape"><path d="M12520.637 4106.632q0 36.277-28.464 56.183-28.277 19.906-79.809 19.906-95.808 0-111.063-66.6l34.417-6.884q5.953 23.626 25.301 34.788 19.347 10.976 52.648 10.976 34.416 0 53.02-11.72 18.789-11.906 18.789-34.788 0-12.837-5.953-20.836-5.767-8-16.371-13.209t-25.301-8.743q-14.697-3.535-32.556-7.628-31.068-6.883-47.253-13.767-15.999-6.883-25.301-15.254-9.302-8.558-14.324-19.906-4.837-11.348-4.837-26.045 0-33.672 25.672-51.904 25.859-18.231 73.856-18.231 44.649 0 68.275 13.766 23.627 13.58 33.115 46.51l-34.975 6.138q-5.767-20.836-21.952-30.137-16.185-9.488-44.835-9.488-31.44 0-47.997 10.418t-16.557 31.068q0 12.092 6.325 20.091 6.512 7.814 18.604 13.395 12.092 5.395 48.183 13.395 12.092 2.79 23.998 5.767 12.093 2.79 23.069 6.883 10.976 3.907 20.464 9.302 9.674 5.395 16.743 13.208 7.069 7.814 10.976 18.418 4.093 10.604 4.093 24.928zM12615.143 4182.72q-30.324 0-45.579-15.998-15.255-16-15.255-43.905 0-31.254 20.464-47.997 20.65-16.743 66.415-17.86l45.206-.743v-10.976q0-24.557-10.418-35.16-10.418-10.605-32.742-10.605-22.51 0-32.742 7.628-10.232 7.627-12.279 24.37l-34.974-3.162q8.557-54.323 80.739-54.323 37.951 0 57.113 17.488 19.161 17.3 19.161 50.23v86.691q0 14.883 3.907 22.51 3.907 7.442 14.883 7.442 4.837 0 10.976-1.302v20.836q-12.65 2.976-25.859 2.976-18.603 0-27.161-9.674-8.372-9.86-9.488-30.695h-1.116q-12.836 23.068-29.952 32.742-16.929 9.488-41.299 9.488zm7.627-25.114q18.418 0 32.742-8.372 14.325-8.371 22.51-22.882 8.372-14.697 8.372-30.138v-16.557l-36.649.744q-23.626.372-35.905 4.837-12.092 4.465-18.603 13.767-6.511 9.302-6.511 24.37 0 16.372 8.743 25.301 8.93 8.93 25.301 8.93zM12853.082 4177.512q-16.558 4.465-33.859 4.465-40.183 0-40.183-45.58v-134.316h-23.255v-24.371h24.557l9.86-45.02h22.324v45.02h37.207v24.37h-37.207v127.063q0 14.51 4.651 20.463 4.837 5.768 16.557 5.768 6.697 0 19.348-2.605z"/></g><g aria-label="Sun" style="fill:#dadada" class="SVGTextShape"><path d="M14509.637 4106.632q0 36.277-28.464 56.183-28.277 19.906-79.809 19.906-95.808 0-111.063-66.6l34.417-6.884q5.953 23.626 25.301 34.788 19.347 10.976 52.648 10.976 34.416 0 53.02-11.72 18.789-11.906 18.789-34.788 0-12.837-5.953-20.836-5.767-8-16.371-13.209t-25.301-8.743q-14.697-3.535-32.556-7.628-31.068-6.883-47.253-13.767-15.999-6.883-25.301-15.254-9.302-8.558-14.324-19.906-4.837-11.348-4.837-26.045 0-33.672 25.672-51.904 25.859-18.231 73.856-18.231 44.649 0 68.275 13.766 23.627 13.58 33.115 46.51l-34.975 6.138q-5.767-20.836-21.952-30.137-16.185-9.488-44.835-9.488-31.44 0-47.997 10.418t-16.557 31.068q0 12.092 6.325 20.091 6.512 7.814 18.604 13.395 12.092 5.395 48.183 13.395 12.092 2.79 23.998 5.767 12.093 2.79 23.069 6.883 10.976 3.907 20.464 9.302 9.674 5.395 16.743 13.208 7.069 7.814 10.976 18.418 4.093 10.604 4.093 24.928zM14585.539 3977.71v127.62q0 19.906 3.907 30.882 3.907 10.976 12.464 15.813 8.558 4.837 25.115 4.837 24.184 0 38.137-16.557t13.953-45.951V3977.71h33.486v158.316q0 35.16 1.116 42.974h-31.626q-.186-.93-.372-5.023t-.558-9.302q-.186-5.395-.558-20.092h-.558q-11.534 20.836-26.789 29.58-15.069 8.558-37.579 8.558-33.115 0-48.555-16.371-15.255-16.558-15.255-54.509V3977.71ZM14892.497 4179v-127.62q0-19.906-3.907-30.882-3.906-10.976-12.464-15.813t-25.115-4.837q-24.184 0-38.137 16.557t-13.953 45.951V4179h-33.486v-158.316q0-35.16-1.116-42.974h31.626q.186.93.372 5.023t.372 9.488q.372 5.209.744 19.905h.558q11.534-20.836 26.603-29.393 15.255-8.744 37.765-8.744 33.115 0 48.37 16.557 15.44 16.372 15.44 54.323V4179Z"/></g><g style="display:inline;stroke:none;stroke-width:28.2;stroke-dasharray:none;stroke-opacity:0"><path style="color:#000;fill:#f2f2f2;stroke:none;stroke-width:28.2;stroke-linecap:round;stroke-linejoin:round;stroke-dasharray:none;stroke-opacity:0" d="M12578.095 2655.032c-22.398 0-44.673 2.745-66.766 8.268a27.5 27.5 0 0 0-19.999 33.383 27.5 27.5 0 0 0 33.332 19.999c35.815-8.954 70.798-8.973 107.797.052a27.5 27.5 0 0 0 33.279-20.206 27.5 27.5 0 0 0-20.205-33.228c-22.5-5.488-45.039-8.269-67.438-8.268zm2037.137 0c-22.508 0-44.828 2.745-66.921 8.268a27.5 27.5 0 0 0-19.999 33.383 27.5 27.5 0 0 0 33.383 19.999c35.815-8.954 70.761-9.037 108.934.052a27.5 27.5 0 0 0 33.125-20.36 27.5 27.5 0 0 0-20.361-33.125c-22.913-5.456-45.652-8.218-68.161-8.217zm-2215.731 54.57a27.5 27.5 0 0 0-13.384 4.91c-36.214 25.562-67.669 55.888-93.586 92.603a27.5 27.5 0 0 0 6.615 38.344 27.5 27.5 0 0 0 38.344-6.614c22.083-31.285 48.571-56.938 80.357-79.375a27.5 27.5 0 0 0 6.614-38.344 27.5 27.5 0 0 0-24.96-11.524zm2036.982 0a27.5 27.5 0 0 0-13.332 4.91c-36.214 25.562-67.721 55.888-93.638 92.603a27.5 27.5 0 0 0 6.614 38.344 27.5 27.5 0 0 0 38.344-6.614c22.083-31.285 48.623-56.938 80.409-79.375a27.5 27.5 0 0 0 6.563-38.344 27.5 27.5 0 0 0-24.96-11.524zm-1677.469.052a27.5 27.5 0 0 0-25.166 11.059 27.5 27.5 0 0 0 5.839 38.447c32.117 23.616 58.615 49.336 79.53 80.254a27.5 27.5 0 0 0 38.189 7.338 27.5 27.5 0 0 0 7.39-38.138c-25.085-37.082-56.618-67.408-92.501-93.792a27.5 27.5 0 0 0-13.281-5.168zm2037.034 0a27.5 27.5 0 0 0-25.218 11.059 27.5 27.5 0 0 0 5.891 38.447c32.117 23.616 58.739 49.434 80.822 80.719a27.5 27.5 0 0 0 38.292 6.563 27.5 27.5 0 0 0 6.614-38.293c-25.917-36.715-57.289-66.943-93.172-93.327a27.5 27.5 0 0 0-13.229-5.168zm-1911.305 203.347a27.5 27.5 0 0 0-21.756 32.246c7.356 37.7 7.356 73.766 0 111.466a27.5 27.5 0 0 0 21.756 32.298 27.5 27.5 0 0 0 32.246-21.756c8.644-44.3 8.644-88.199 0-132.499a27.5 27.5 0 0 0-32.246-21.755zm-611.849.155a27.5 27.5 0 0 0-32.763 20.929c-9.803 44.658-9.803 89.131 0 133.79a27.5 27.5 0 0 0 32.763 20.98 27.5 27.5 0 0 0 20.981-32.762c-8.197-37.341-8.197-72.833 0-110.174a27.5 27.5 0 0 0-20.981-32.763zm2039.617.103a27.5 27.5 0 0 0-33.228 20.206c-10.975 45-10.975 90.03 0 135.03a27.5 27.5 0 0 0 33.228 20.206 27.5 27.5 0 0 0 20.206-33.228c-9.025-37-9.025-71.935 0-108.934a27.5 27.5 0 0 0-20.206-33.28zm607.973 0a27.5 27.5 0 0 0-20.205 33.28c9.025 37 9.025 71.934 0 108.934a27.5 27.5 0 0 0 20.205 33.228 27.5 27.5 0 0 0 33.228-20.206c10.975-45 10.975-90.03 0-135.03a27.5 27.5 0 0 0-33.228-20.206zm-2608.626 236.317a27.5 27.5 0 0 0-13.436 4.754 27.5 27.5 0 0 0-7.079 38.24c25.975 37.88 57.578 68.334 93.792 93.896a27.5 27.5 0 0 0 38.344-6.614 27.5 27.5 0 0 0-6.614-38.344c-31.786-22.437-58.177-47.927-80.202-80.047a27.5 27.5 0 0 0-24.805-11.885zm2038.015 0a27.5 27.5 0 0 0-13.436 4.754 27.5 27.5 0 0 0-7.131 38.24c25.773 37.586 56.389 68.187 92.811 93.896a27.5 27.5 0 0 0 38.344-6.614 27.5 27.5 0 0 0-6.615-38.344c-31.578-22.29-56.941-47.633-79.168-80.047a27.5 27.5 0 0 0-24.805-11.885zm-1505.386 1.033a27.5 27.5 0 0 0-24.96 11.524c-22.229 31.492-48.916 58.179-80.408 80.408a27.5 27.5 0 0 0-6.563 38.344 27.5 27.5 0 0 0 38.292 6.563c36.508-25.77 67.868-57.078 93.638-93.586a27.5 27.5 0 0 0-6.615-38.344 27.5 27.5 0 0 0-13.384-4.909zm2037.033 0a27.5 27.5 0 0 0-25.011 11.524c-22.23 31.492-48.865 58.179-80.357 80.408a27.5 27.5 0 0 0-6.614 38.344 27.5 27.5 0 0 0 38.344 6.563c36.508-25.77 67.816-57.078 93.586-93.586a27.5 27.5 0 0 0-6.615-38.344 27.5 27.5 0 0 0-13.333-4.909zm-2248.441 134.514c-37.342 8.197-72.867 8.19-109.037.052a27.5 27.5 0 0 0-32.867 20.774 27.5 27.5 0 0 0 20.774 32.866c43.83 9.862 88.306 9.855 132.964.052a27.5 27.5 0 0 0 20.929-32.763 27.5 27.5 0 0 0-32.763-20.98zm2038.17 0c-38.502 8.25-74.056 8.19-110.226.052a27.5 27.5 0 0 0-32.866 20.774 27.5 27.5 0 0 0 20.826 32.866c43.83 9.862 88.292 9.8 133.79.052a27.5 27.5 0 0 0 21.136-32.608 27.5 27.5 0 0 0-32.66-21.136z"/></g></svg>